<?xml version="1.0" encoding="UTF-8" standalone="no"?>
<!DOCTYPE svg PUBLIC "-//W3C//DTD SVG 1.1//EN" "http://www.w3.org/Graphics/SVG/1.1/DTD/svg11.dtd">
<svg version="1.1" xmlns="http://www.w3.org/2000/svg" xmlns:xlink="http://www.w3.org/1999/xlink" preserveAspectRatio="xMidYMid meet" viewBox="0 0 640 640" width="640" height="640"><defs><path d="M447.63 321.33C447.63 299.82 453.82 280.12 466.18 262.24C472.84 252.53 483.69 241.3 498.73 228.55C488.83 216.38 478.94 206.86 469.03 200.01C451.15 187.64 430.88 181.46 408.23 181.46C394.72 181.46 378.26 184.69 358.85 191.17C340.2 197.64 326.59 200.87 318.03 200.87C311.56 200.87 298.43 198.02 278.64 192.31C258.66 186.6 241.82 183.75 228.12 183.75C195.38 183.75 168.36 197.45 147.05 224.85C125.54 252.64 114.79 288.22 114.79 331.61C114.79 377.66 128.78 425.52 156.75 475.19C185.11 524.48 213.75 549.13 242.67 549.13C252.38 549.13 264.94 545.89 280.35 539.42C295.77 533.15 309.28 530 320.89 530C333.25 530 347.62 533.05 363.99 539.13C381.31 545.22 394.63 548.26 403.95 548.26C428.31 548.26 452.77 529.61 477.31 492.31C493.3 468.53 505 444.74 512.42 420.95C495.48 415.81 480.45 403.82 467.32 384.98C454.19 366.14 447.63 344.92 447.63 321.33Z" id="a4wucG2rSi"></path><path d="M396.81 124.94C402.33 110.67 405.08 97.72 405.08 86.11C405.08 85.35 405.04 84.4 404.94 83.26C404.85 82.12 404.8 81.17 404.8 80.41C404.61 79.83 404.37 78.79 404.09 77.27C403.81 75.75 403.57 74.7 403.38 74.13C369.88 81.93 346.1 96.02 332.01 116.38C317.74 136.93 310.32 161.38 309.75 189.74C322.5 188.6 332.39 186.98 339.43 184.89C349.72 181.46 359.98 174.61 370.26 164.33C382.25 152.34 391.1 139.21 396.81 124.94Z" id="feqhT5FUJ"></path></defs><g><g><g><use xlink:href="#a4wucG2rSi" opacity="1" fill="#ffffff" fill-opacity="1"></use><g><use xlink:href="#a4wucG2rSi" opacity="1" fill-opacity="0" stroke="#000000" stroke-width="1" stroke-opacity="0"></use></g></g><g><use xlink:href="#feqhT5FUJ" opacity="1" fill="#ffffff" fill-opacity="1"></use><g><use xlink:href="#feqhT5FUJ" opacity="1" fill-opacity="0" stroke="#000000" stroke-width="1" stroke-opacity="0"></use></g></g></g></g></svg>